# xmcd
#
# Track frame offsets:
#       150
#       9897
#       27939
#       43487
#       56700
#       67329
#
# Disc length: 1080 seconds
#
# Revision: 1
# Processed by: cddbd v1.4PL0 Copyright (c) Steve Scherf et al.
# Submitted via: MusiCat 1.0
#
DISCID=52043606
DTITLE=Sun, the - Love and death
DYEAR=1900
DGENRE=
TTITLE0=fell so hard
TTITLE1=rockstop
TTITLE2=love and death
TTITLE3=carry it all
TTITLE4=back in the summer of '72
TTITLE5=eyelids apart
EXTD=2003\nWB\n\nWhat we have here is a bit of garage rock bandwaggon-jumping 
EXTD=by Warner Bros in signing The Sun, who sound like an amalgam of The Strok
EXTD=es, The White Stripes, The Vines, The Hives, and The Flaming Sideburns. S
EXTD=eems like all you have to do these days is compress the hell out of your 
EXTD=vocals, play loud guitars, and put a "The" before your band name. Regardl
EXTD=ess, these guys are worth a listen. Recommended: 1, 4, 3, and 6 (an acous
EXTD=tic oddity).\r\n\r\n-riley
EXTT0=
EXTT1=
EXTT2=
EXTT3=
EXTT4=
EXTT5=
PLAYORDER=
